<svg xmlns="http://www.w3.org/2000/svg" viewBox="0 0 391.59 276.92"><g id="レイヤー_2" data-name="レイヤー 2"><g id="レイヤー_1-2" data-name="レイヤー 1"><path d="M372.62,215.76a3.51,3.51,0,0,1-2.83-1.43c-9.86-13.37-8.54-25.71-7.14-38.78.86-8,1.75-16.34.35-26-3.09-21.17-16.51-37.67-38.81-47.74a3.51,3.51,0,1,1,2.7-6.47l.19.08c24.59,11.1,39.41,29.47,42.86,53.12,1.53,10.5.55,19.65-.32,27.73-1.35,12.68-2.42,22.69,5.82,33.87a3.51,3.51,0,0,1-2.83,5.59Z" fill="#5e363e"/><path d="M388.29,218.66a22.37,22.37,0,0,0-15.08-9.87A3.5,3.5,0,0,0,370,210a24,24,0,0,0-4.06,20.56c2.13,8.74,9.81,16.52,16.44,16.66h.19c3.61,0,6.41-2.23,7.51-6C393.26,230,390.87,222.79,388.29,218.66Z" fill="#9a5050"/><path d="M34.89,103.71c-21.89-2.07-31.21-9.35-34-12A3.12,3.12,0,0,1,0,89.44V75.69a11.34,11.34,0,0,1,.16-1.93C1.54,65.55,11.67,63,15.28,59.24c2-2.15,3.22-8.43,3.4-11.4.67-11.31,11.82-21.18,17.57-25.15,4.39,1.15,12.91,3.58,18.33,11C75.05,61.65,62.84,96.44,34.89,103.71Z" fill="#f2974c"/><path d="M112.12,216.11c-7.55,27.35-36.49,54.94-42,60a3.12,3.12,0,0,1-2.11.82H44.4a1.55,1.55,0,0,1-1.57-1.54,1.59,1.59,0,0,1,.06-.43c.7-2.46,3-6.56,10.22-8a1.57,1.57,0,0,0,1.07-.75c4-7,8.46-19.48,10.36-26.28,2.3-8.29,3.82-16.63,7.29-33.64,2.45-12,5.23-24.19,5.86-30.85C77.69,175.39,112.12,184.15,112.12,216.11Z" fill="#e46c3d"/><path d="M285.81,200.28c-.82,7.24-4,27.5-5.77,38.44a27.66,27.66,0,0,1-5.72,12.9L255,275.72a3.14,3.14,0,0,1-2.44,1.17H231.15a1.56,1.56,0,0,1-1.56-1.56c0-.09,0-.19,0-.29.55-2.81,2.32-7.94,7.91-8.75a1.54,1.54,0,0,0,1.1-.77c3.43-5.92,8.74-20.11,10.33-24.42a4.59,4.59,0,0,0,.17-2.62c-.77-3.45-3.12-12.75-7.59-20.11-2.14-3.51-10.65-13.1-17.27-22.17C217.53,173.75,272.2,168.07,285.81,200.28Z" fill="#e46c3d"/><path d="M331.88,100.92c1.31,1.42,2.6,2.9,3.89,4.45,25.86,31,9.83,74.47,6.3,83a6.24,6.24,0,0,0-.42,3.2l5.54,41.57a27.65,27.65,0,0,1-5.47,23l-15.67,19.58a3.12,3.12,0,0,1-2.43,1.17H302.16a1.55,1.55,0,0,1-1.56-1.55,1.36,1.36,0,0,1,0-.29c.55-2.82,2.31-7.95,7.9-8.75a1.55,1.55,0,0,0,1.1-.78c3-5.19,7.46-16.73,9.58-22.4a6.22,6.22,0,0,0-.89-6c-3.34-4.36-9.92-13.13-14-19.77-1.8-3-8.79-8.45-18.55-17.09-3.06-2.72-6.39-5.75-9.93-9.1a4.67,4.67,0,0,0-3.26-1.3c-21.8.15-36.08,3-48.36,6.32-18.46,5-32.41,10.92-60.66,10.11a4.7,4.7,0,0,0-4.84,4.55,4.9,4.9,0,0,0,.05.77c2.34,17.58,2.87,35.32,1,46.85-1.3,8-8.71,15.28-11.33,17.63a3.12,3.12,0,0,1-2.09.8H123.91a1.55,1.55,0,0,1-1.56-1.55.82.82,0,0,1,0-.27c.91-5.09,5.52-7.61,7.36-8.43a1.59,1.59,0,0,0,.92-1.19c.88-5.43,4.42-34.76-18.53-49.37a91,91,0,0,1-34.43-40.72c9-19.11,17.56-36.26,28-49.19C128.36,98,148.43,84.94,148.43,84.94c26.66,6,60.79,5,132.07-3.28C304.26,78.9,318.54,86.4,331.88,100.92Z" fill="#f2974c"/><path d="M145.24,90.24a225.22,225.22,0,0,0-34.82,33.92c-.87,1-1.75,2.11-2.62,3.2s-1.7,2.11-2.56,3.2c-6.63,8.38-13.56,17.8-19.28,28.9A112.63,112.63,0,0,0,80,175.39c-.67,2.15-1.33,4.37-2,6.59-2.07,7.16-3.92,14.33-5.12,19.39a4.08,4.08,0,0,1-4.91,3,4.2,4.2,0,0,1-.9-.32C31,185.78,25,139.5,34.89,103.71,39.37,83,47.39,64.85,51.33,52.43A15,15,0,0,0,46.4,36.22c-7.08-5.66-8-8.94-10.07-13.36a1.06,1.06,0,0,1-.09-.36C35.08,3.91,64.11-4.74,91.86,2.62c26.61,7,38.7,18.47,28.34,21.55a.89.89,0,0,0-.62,1.11.84.84,0,0,0,.26.43c5.16,4.63,23.89,23,30.41,50.52A13.71,13.71,0,0,1,145.24,90.24Z" fill="#9a5050"/><path d="M68.68,27.44H88.27a3.17,3.17,0,0,0,3.17-3.1c.35-21.73-20.08-20.85-25.79-1a3.17,3.17,0,0,0,2.15,3.94A2.89,2.89,0,0,0,68.68,27.44Z" fill="#5e363e"/><path d="M80,175.39c-.67,2.15-1.33,4.37-2,6.59-2.66-.41-5.23-2.29-7.64-5.61-7.8-10.72-13.93-36.66-9.76-49.51a3.51,3.51,0,0,1,6.73,2,1.54,1.54,0,0,1,0,.17c-3.47,10.69,2.16,34.17,8.75,43.23A9.5,9.5,0,0,0,80,175.39Z" fill="#5e363e"/><path d="M111.91,92.34c-5,7.5-5.56,19.28-1.49,31.82-.87,1-1.75,2.11-2.62,3.2s-1.7,2.11-2.56,3.2c-6.48-14.76-5.8-32.24.84-42.13a3.51,3.51,0,1,1,5.83,3.91Z" fill="#5e363e"/><path d="M10.35,80.7a35.17,35.17,0,0,1-6.23.61A18.35,18.35,0,0,1,0,80.9V75.69a11.34,11.34,0,0,1,.16-1.93,3.41,3.41,0,0,1,1,.19c1.73.61,5.63.28,7.85-.14a3.51,3.51,0,1,1,1.33,6.89Z" fill="#e46c3d"/><circle cx="29.57" cy="51.52" r="3.55" fill="#e46c3d"/></g></g></svg>